# xmcd
#
# Track frame offsets:
#	150
#	13925
#	40787
#	56676
#	77521
#	103575
#	117672
#	129817
#	141251
#	155809
#	182846
#	201555
#	215213
#	243418
#	260342
#	274946
#	291746
#
# Disc length: 4151 seconds
#
# Revision: 2
# Processed by: cddbd v1.5.2PL0 Copyright (c) Steve Scherf et al.
# Submitted via: EZCDDA 4.3.2
#
DISCID=12103511
DTITLE=Romica Puceanu - La casa cu trestioara
DYEAR=1900
DGENRE=
TTITLE0=La casa cu trestioara
TTITLE1=Coborai din sat in jos
TTITLE2=Nu stiu cu ce ti-am gresit
TTITLE3=Ne-am despartit si tare as vrea
TTITLE4=Uite mama. cade-o stea
TTITLE5=Erai fata mandra-n sat
TTITLE6=Inimioara, inimioara
TTITLE7=Spune, maiculita spune
TTITLE8=Leaga-ti lele, coada stanga
TTITLE9=Ce-aveti voi, dusmani, cu mine?
TTITLE10=Ba, ba, ba, surata ba (Mi-e dor de cineva)
TTITLE11=Toata viata am muncit
TTITLE12=Ce e omul pe pamant
TTITLE13=Mai voinice, voinicel
TTITLE14=Ridicati cu toti paharul!
TTITLE15=La Ploiesti de vale
TTITLE16=Mama, mama, dor de mama
EXTD=
EXTT0=
EXTT1=
EXTT2=
EXTT3=
EXTT4=
EXTT5=
EXTT6=
EXTT7=
EXTT8=
EXTT9=
EXTT10=
EXTT11=
EXTT12=
EXTT13=
EXTT14=
EXTT15=
EXTT16=
PLAYORDER=
